<?xml version="1.0" encoding="utf-8"?>
<!-- Generator: Adobe Illustrator 19.0.0, SVG Export Plug-In . SVG Version: 6.00 Build 0)  -->
<svg version="1.1" id="Capa_1" xmlns="http://www.w3.org/2000/svg" xmlns:xlink="http://www.w3.org/1999/xlink" x="0px" y="0px"
	 viewBox="0 0 32 32" style="enable-background:new 0 0 32 32;" xml:space="preserve">
<style type="text/css">
	.st0{fill:none;stroke:#1A7688;stroke-miterlimit:10;}
	.st1{fill:#1A7688;}
	.st2{fill:none;stroke:#1A7688;stroke-width:0.5;stroke-linecap:round;stroke-miterlimit:10;}
</style>
<path id="XMLID_1_" class="st0" d="M13,29.9H3.3c-0.7,0-1.3-0.6-1.3-1.3V3.1c0-0.7,0.6-1.3,1.3-1.3H13c0.7,0,1.3,0.6,1.3,1.3v25.5
	C14.3,29.4,13.7,29.9,13,29.9z"/>
<g id="XMLID_5_">
	<path id="XMLID_15_" class="st1" d="M26.3,10.5c0.1,0,0.2,0,0.2,0.1l4.1,5.1l-4.1,5.1c-0.1,0.1-0.1,0.1-0.2,0.1
		c-0.1,0-0.3-0.1-0.3-0.3v-2c0-0.2-0.1-0.3-0.3-0.3h-8.4c-0.2,0-0.3-0.1-0.3-0.3v-4.6c0-0.2,0.1-0.3,0.3-0.3h8.4
		c0.2,0,0.3-0.1,0.3-0.3v-2C26.1,10.6,26.2,10.5,26.3,10.5 M26.3,9.4c-0.8,0-1.4,0.6-1.4,1.4V12h-7.5c-0.8,0-1.4,0.6-1.4,1.4V18
		c0,0.8,0.6,1.4,1.4,1.4h7.5v1.2c0,0.8,0.6,1.4,1.4,1.4c0.4,0,0.8-0.2,1.1-0.5l4.1-5.1c0.3-0.4,0.3-1,0-1.4l-4.1-5.1
		C27.2,9.6,26.8,9.4,26.3,9.4L26.3,9.4z"/>
</g>
<line id="XMLID_2_" class="st2" x1="4.2" y1="4.6" x2="12" y2="4.6"/>
<line id="XMLID_4_" class="st2" x1="4.2" y1="6.5" x2="12" y2="6.5"/>
<line id="XMLID_6_" class="st2" x1="4.2" y1="8.4" x2="12" y2="8.4"/>
<line id="XMLID_7_" class="st2" x1="4.2" y1="10.3" x2="12" y2="10.3"/>
<line id="XMLID_8_" class="st2" x1="4.2" y1="12.1" x2="12" y2="12.1"/>
<line id="XMLID_9_" class="st2" x1="4.2" y1="14" x2="12" y2="14"/>
<line id="XMLID_10_" class="st2" x1="4.2" y1="15.9" x2="12" y2="15.9"/>
<line id="XMLID_12_" class="st2" x1="4.2" y1="17.8" x2="12" y2="17.8"/>
<line id="XMLID_13_" class="st2" x1="4.2" y1="19.6" x2="12" y2="19.6"/>
<line id="XMLID_14_" class="st2" x1="4.2" y1="21.5" x2="12" y2="21.5"/>
<line id="XMLID_18_" class="st2" x1="4.2" y1="23.4" x2="12" y2="23.4"/>
<line id="XMLID_19_" class="st2" x1="4.2" y1="25.3" x2="12" y2="25.3"/>
<line id="XMLID_20_" class="st2" x1="4.2" y1="27.1" x2="12" y2="27.1"/>
</svg>
