<?xml version="1.0" encoding="utf-8"?>
<!-- Generator: Adobe Illustrator 19.0.0, SVG Export Plug-In . SVG Version: 6.00 Build 0)  -->
<svg version="1.1" id="Logo" xmlns="http://www.w3.org/2000/svg" xmlns:xlink="http://www.w3.org/1999/xlink" x="0px" y="0px"
	 viewBox="0 0 1024 1024" style="enable-background:new 0 0 1024 1024;" xml:space="preserve">
<style type="text/css">
	.st0{fill:#745A23;}
	.st1{fill:#866825;}
	.st3{fill:#92B74F;}
	.st4{fill:#FEEF41;}
	.st5{fill:#6C8D44;}
</style>

<path id="XMLID_135_" class="st0" d="M816.9,247.1c0,0,60.3,76.6,138,48.5c0,0-33.2-66.2-102-73.6L816.9,247.1z"/>
<path id="XMLID_134_" class="st1" d="M948.8,145.1c0,0,82.3,106.8,17,198.9c0,0-27.4-113.8-117.7-116.9L948.8,145.1z"/>

<g id="XMLID_127_">
	<path id="XMLID_131_" class="st3" d="M598.5,692.8c0-328.2,0-40.7,0-365.1s164.6-327,164.6-327c-79.4,0-145.2,30.9-197.5,92.7
		c-52.3,61.8-78.4,139.9-78.4,234.3v303.4l0.2,53.8c0,78.6-27.8,117.5-84.7,117.5c-23.7,0-44-8.2-61-24.6c-17-16.4-25.5-36-25.5-59
		c0-23.7,8.2-43.9,24.6-60.7c16.4-16.8,36-25.2,59-25.2c27.4,0,27.4,0,54.4,0l0.1-226.3c-25.3,0-46.2,0-59.2,0
		c-82.2,0-153.3,30.4-213.3,91.2c-60,60.8-90.1,132.9-90.1,216.2c0,11.3,0.6,22.4,1.6,33.2c-14-18.8-32-48.6-34.6-80.8
		c0,0-14.4,115.4,42.4,180.6C57,833.5,27.5,800,27.5,800c46.3,235.6,377.6,221,377.6,221c0.3,0,0.6,0,0.9,0
		C419.4,1020.5,598.5,1008.7,598.5,692.8z"/>
	<path id="XMLID_128_" class="st4" d="M763.1,0.7c0,0-164.6,2.6-164.6,327s0,36.9,0,365.1c0,315.9-179.1,327.8-192.6,328.2
		c43.9-0.1,86.8-9.8,128.6-29c42.1-19.3,76.7-45.4,104-78.2c47.4-56.9,71.1-130.5,71.1-221v-60.1h96.1V407h-96.1v-3.1V303.8v-39.1
		c4.4-26.9,19.7-40,43.4-40c25.2,0,42.7,15.4,52.6,46.2l24.1-19.6l129-104.9l23.9-19.5C923.9,42.7,850.7,0.7,763.1,0.7z
		 M865.8,145.1c-15.3,0-27.7-12.4-27.7-27.7c0-15.3,12.4-27.7,27.7-27.7s27.7,12.4,27.7,27.7C893.4,132.7,881,145.1,865.8,145.1z"/>
</g>

<path id="XMLID_85_" class="st5" d="M341.9,777.8c-17-16.4-25.5-36-25.5-59c0-23.7,8.2-43.9,24.6-60.7c16.4-16.8,36-25.2,59-25.2
	c27.3,0,27.4,0,54.1,0V406.6c-8.2,0-15.9,0-23,0c-99,10.7-176.2,98.1-176.2,204.3c0,79.1,42.8,147.6,105.4,182v-1.4
	C353.8,787.8,347.7,783.3,341.9,777.8z"/>
<circle id="XMLID_84_" class="st1" cx="865.8" cy="117.4" r="27.7"/>
</svg>
