<?xml version="1.0" encoding="utf-8"?>
<!-- Generator: Adobe Illustrator 19.0.0, SVG Export Plug-In . SVG Version: 6.00 Build 0)  -->
<svg version="1.1" id="MountainBg" xmlns="http://www.w3.org/2000/svg" xmlns:xlink="http://www.w3.org/1999/xlink" x="0px" y="0px"
	 viewBox="0 512 1024 1024" style="enable-background:new 0 512 1024 1024;" xml:space="preserve">
<style type="text/css">
	.st0{fill:#2F2F2F;}
	.st1{fill:none;}
	.cloud {
	  animation: cloud 15s linear infinite;
	}
	@keyframes cloud {
		0% {
			opacity : 0;
		}
		40% {
			opacity: 1;
		}
		60% {
			opacity: 1;
		}
	  100% {
	    transform: translateX(400px);
			opacity: 0;
	  }
	}
	.cloud-1{
		opacity: 0;
		animation-delay: 0.0s;
	}
	.cloud-2{
		opacity: 0;
		animation-delay: 4.0s;
	}
	.cloud-3{
		opacity: 0;
		animation-delay: 8.0s;
	}
</style>
<g id="XMLID_1_">
	<path id="XMLID_36_" class="st0" d="M-0.1,1383c0,0,2.7-1.6,7.7-4.6s12.4-7.4,21.8-12.8c9.4-5.5,20.9-12.2,34-19.8
		c6.6-3.8,13.5-7.9,20.9-12.2c7.4-4.3,15.2-8.7,23.3-13.4c16.2-9.3,33.8-19.3,52.4-30c9.3-5.3,18.8-10.8,28.6-16.4
		c2.4-1.4,4.9-2.8,7.4-4.2c1.2-0.7,2.5-1.4,3.7-2.1l1.9-1.1l0.9-0.5l0.6-0.3l0.5-0.2c5.1-2.6,10.1-5.4,15.7-7.7
		c1.4-0.6,2.8-1.2,4.2-1.8c0.7-0.3,1.4-0.6,2.1-0.9l2.1-0.8c2.8-1,5.7-2,8.5-3.1c2.9-0.9,5.8-1.7,8.7-2.6c1.5-0.4,2.9-0.9,4.4-1.2
		c1.5-0.3,3-0.7,4.5-1s3-0.7,4.5-1l2.3-0.5l2.3-0.4c3.1-0.5,6.1-0.9,9.2-1.4c3.1-0.3,6.2-0.6,9.3-0.9c3.1-0.4,6.2-0.4,9.4-0.4
		c6.3-0.3,12.6,0.1,18.9,0.4c3.1,0.3,6.3,0.7,9.4,1c0.8,0.1,1.6,0.2,2.4,0.3l2.3,0.4l4.7,0.8l4.7,0.8l4.6,1.1l4.6,1.1l2.3,0.6
		c0.8,0.2,1.5,0.5,2.3,0.7l9.1,2.8c3,1.1,6,2.3,8.9,3.4c3,1.1,5.9,2.5,8.8,3.9s5.8,2.6,8.6,4.3c2.8,1.5,5.6,3.1,8.3,4.6
		c2.7,1.6,5.3,3.2,8,4.8c10.7,6.4,21.3,12.7,31.8,19c21.1,12.6,41.8,25,61.8,37c20.1,11.9,39.4,23.7,57.7,34.9
		c18.3,11.1,35.6,21.7,51.6,31.4c8,4.9,15.7,9.5,22.9,14s14.1,8.7,20.6,12.7c12.9,8,24.2,15,33.5,20.7s16.5,10.3,21.5,13.4
		c4.9,3.1,7.6,4.8,7.6,4.8l-0.3,0.4c0,0-42.9-25.4-107.3-63.5c-32.2-19-69.7-41.2-109.9-65c-20.1-11.9-40.9-24.2-62-36.7
		c-10.6-6.2-21.2-12.5-31.9-18.9c-2.7-1.6-5.3-3.2-8-4.7s-5.4-3-8.2-4.5c-2.7-1.6-5.5-2.8-8.4-4.1c-2.8-1.3-5.6-2.7-8.5-3.7
		c-2.9-1.1-5.8-2.3-8.7-3.3l-8.9-2.8c-0.7-0.2-1.5-0.5-2.2-0.7l-2.3-0.6l-4.5-1.1l-4.5-1.1l-4.6-0.8l-4.6-0.8l-2.3-0.4
		c-0.8-0.1-1.5-0.2-2.3-0.3c-3.1-0.3-6.1-0.7-9.2-1c-6.1-0.3-12.3-0.8-18.4-0.5c-3.1,0.1-6.1,0-9.1,0.4c-3,0.3-6.1,0.5-9.1,0.8
		c-3,0.4-6,0.9-9,1.3l-2.2,0.3l-2.2,0.5c-1.5,0.3-2.9,0.6-4.4,0.9s-2.9,0.6-4.4,0.9s-2.9,0.8-4.3,1.2c-2.9,0.8-5.7,1.6-8.6,2.5
		c-2.8,1-5.6,2-8.3,3l-2.1,0.7c-0.7,0.3-1.3,0.6-2,0.9c-1.3,0.6-2.7,1.2-4,1.7c-5.4,2.2-10.5,5-15.6,7.6c-5,2.8-10,5.5-14.9,8.3
		c-9.8,5.5-19.4,10.8-28.8,16c-18.7,10.4-36.4,20.3-52.8,29.3C43.5,1359.1,0,1383.4,0,1383.4L-0.1,1383z"/>
</g>
<g id="XMLID_2_">
	<path id="XMLID_34_" class="st0" d="M440.2,1302.3c0,0,1.3-1.6,3.9-4.6c2.5-3,6.2-7.4,11-13s10.5-12.3,17.2-20.1
		c3.3-3.9,6.8-8,10.6-12.3c3.7-4.3,7.7-8.9,11.8-13.6c4.1-4.7,8.4-9.7,12.8-14.8c4.5-5.1,9.1-10.3,13.8-15.7
		c9.5-10.8,19.5-22.2,29.9-33.9c5.2-5.9,10.5-11.8,15.9-17.8c2.7-3,5.4-6,8.1-9.1c2.7-3,5.5-6.1,8.2-9.1c1.4-1.5,2.8-3.1,4.1-4.6
		l0.5-0.6l0.3-0.4l0.3-0.3l1.1-1.1l2.1-2.3c0.4-0.4,0.7-0.8,1.1-1.1l1.2-1.1l2.4-2.3l1.2-1.1l1.2-1l2.5-2.1
		c6.7-5.5,13.9-10.3,21.6-14.3c15.4-7.9,32.6-12.5,49.6-13.3c17.1-0.9,33.9,2,49.1,7.6c15.2,5.6,28.6,14.4,39.4,24.4
		c0.7,0.6,1.3,1.3,2,1.9l1,0.9l0.9,1c1.3,1.3,2.5,2.6,3.7,3.9c2.3,2.6,4.6,5.1,6.9,7.7c4.5,5,8.9,9.9,13,14.6
		c8.4,9.3,16,18,22.7,25.6c6.7,7.7,12.6,14.3,17.4,19.8c4.9,5.5,8.6,9.9,11.1,12.8c2.6,3,3.9,4.6,3.9,4.6l-0.4,0.3
		c0,0-22.8-24.4-57.1-61.1c-4.3-4.6-8.7-9.4-13.4-14.3c-4.6-4.9-9.3-10.2-14.6-14.9c-10.6-9.6-23.6-17.8-38.4-23.1
		c-14.7-5.4-30.9-7.9-47.3-7c-16.4,0.9-32.8,5.3-47.6,13c-7.4,3.8-14.4,8.4-20.8,13.7c-3.2,2.6-6.2,5.4-9.2,8.4
		c-1.4,1.5-2.9,3-4.3,4.5c-1.4,1.5-2.8,3.1-4.2,4.6c-11.1,12.2-22,24.2-32.5,35.8c-21.1,23.2-40.7,44.9-57.6,63.4
		c-33.7,37.1-56.2,61.9-56.2,61.9L440.2,1302.3z"/>
</g>
<g id="XMLID_5_">
	<g id="XMLID_6_">
		<path id="XMLID_32_" class="st0" d="M1154.9,1311.7c0,0-36-21.6-90-54c-13.5-8.1-28.1-16.9-43.5-26.2c-7.7-4.7-15.7-9.4-23.8-14.3
			c-2-1.2-4.1-2.5-6.1-3.7c-1-0.6-2.1-1.2-3.1-1.9c-1-0.6-2.1-1.2-3.1-1.8c-4.2-2.3-8.5-4.3-13-6.1c-9-3.6-18.4-6.4-28.2-7.8
			c-9.8-1.5-19.9-1.9-29.9-0.9c-10,0.9-20,3.1-29.5,6.5c-4.8,1.7-9.5,3.6-14,5.9c-2.3,1.1-4.5,2.3-6.7,3.6l-6.8,3.9
			c-4.6,2.6-9.1,5.2-13.7,7.8c-4.6,2.6-9.1,5.1-13.7,7.7c-9.1,5.1-18.2,10.2-27.2,15.2c-9,5.1-18,10-26.8,14.9
			c-8.9,4.9-17.6,9.7-26.2,14.5c-8.6,4.8-17.1,9.4-25.4,13.9c-8.3,4.5-16.5,9-24.4,13.3s-15.7,8.4-23.2,12.4s-14.7,7.8-21.7,11.6
			c-13.9,7.4-26.6,14.2-37.9,20.2c-11.4,5.9-21.3,11-29.4,15.2c-4.1,2.1-7.7,4-10.9,5.6s-5.9,3-8.1,4.1c-4.4,2.2-6.7,3.4-6.7,3.4
			l-0.2-0.4c0,0,36.7-20.4,91.7-51.1c27.5-15.3,59.6-33.2,94-52.4c17.2-9.6,35-19.5,53-29.5c18.1-10,36.4-20.2,54.8-30.4
			c4.6-2.5,9.1-5.2,13.9-7.4c4.7-2.3,9.6-4.3,14.6-5.9c9.9-3.3,20.3-5.4,30.6-6.1c20.7-1.5,41.3,2.3,59.4,10.2
			c4.5,2,8.9,4.2,13.1,6.7c4.2,2.5,8.2,5,12.3,7.5c8.1,4.9,16,9.8,23.7,14.5c15.4,9.4,29.9,18.3,43.4,26.5
			c53.7,32.9,89.5,54.8,89.5,54.8L1154.9,1311.7z"/>
	</g>
	<g id="XMLID_4_">
		<path id="XMLID_28_" class="st1" d="M0,1383.2"/>
	</g>
</g>
<g id="XMLID_8_">
	<g id="XMLID_29_">
		<path id="XMLID_38_" class="st0" d="M123.1,1308.7c0,0-36-21.6-90-54c-13.5-8.1-28.1-16.9-43.5-26.2c-7.7-4.7-15.7-9.4-23.8-14.3
			c-2-1.2-4.1-2.5-6.1-3.7c-1-0.6-2.1-1.2-3.1-1.9c-1-0.6-2.1-1.2-3.1-1.8c-4.2-2.3-8.5-4.3-13-6.1c-9-3.6-18.4-6.4-28.2-7.8
			c-9.8-1.5-19.9-1.9-29.9-0.9c-10,0.9-20,3.1-29.5,6.5c-4.8,1.7-9.5,3.6-14,5.9c-2.3,1.1-4.5,2.3-6.7,3.6l-6.8,3.9
			c-4.6,2.6-9.1,5.2-13.7,7.8c-4.6,2.6-9.1,5.1-13.7,7.7c-9.1,5.1-18.2,10.2-27.2,15.2c-9,5.1-18,10-26.8,14.9
			c-8.9,4.9-17.6,9.7-26.2,14.5s-17.1,9.4-25.4,13.9s-16.5,9-24.4,13.3s-15.7,8.4-23.2,12.4s-14.7,7.8-21.7,11.6
			c-13.9,7.4-26.6,14.2-37.9,20.2c-11.4,5.9-21.3,11-29.4,15.2c-4.1,2.1-7.7,4-10.9,5.6c-3.2,1.6-5.9,3-8.1,4.1
			c-4.4,2.2-6.7,3.4-6.7,3.4l-0.2-0.4c0,0,36.7-20.4,91.7-51.1c27.5-15.3,59.6-33.2,94-52.4c17.2-9.6,35-19.5,53-29.5
			c18.1-10,36.4-20.2,54.8-30.4c4.6-2.5,9.1-5.2,13.9-7.4c4.7-2.3,9.6-4.3,14.6-5.9c9.9-3.3,20.3-5.4,30.6-6.1
			c20.7-1.5,41.3,2.3,59.4,10.2c4.5,2,8.9,4.2,13.1,6.7s8.2,5,12.3,7.5c8.1,4.9,16,9.8,23.7,14.5c15.4,9.4,29.9,18.3,43.4,26.5
			c53.7,32.9,89.5,54.8,89.5,54.8L123.1,1308.7z"/>
	</g>
	<g id="XMLID_10_">
		<path id="XMLID_13_" class="st1" d="M-1031.8,1380.2"/>
	</g>
</g>
<g id="Cloud1">
	<path id="XMLID_25_" class="st0 cloud cloud-1" d="M454.9,883.3c-0.1-1.9-2.1-3.1-4-4.1c-1.9-1-4.1-1.8-6.3-2.5c-4.4-1.3-9.1-2.3-13.7-3.1
		c-4.7-0.8-9.5-1.5-14.1-2.1c-4.8-0.6-9.6-1-14.2-1.4c-9.6-0.7-19.2-1.2-28.8-1.4c-4.8-0.1-9.6-0.1-14.4-0.1
		c-4.8,0-9.6,0.1-14.4,0.2c-4.8,0.1-9.6,0.3-14.4,0.5c-4.8,0.2-9.6,0.5-14.4,0.8c-9.6,0.6-19,1.4-28.5,2.6
		c-9.5,1.1-18.8,2.5-27.7,4.6c-2.2,0.5-4.4,1.1-6.5,1.7c-2.1,0.6-4.1,1.4-5.8,2.2c-0.4,0.2-0.9,0.4-1.3,0.6l-0.5,0.3l-0.5,0.3
		c-0.6,0.4-0.9,0.8-1,1c0,0,0,0,0,0.1c0,0,0,0,0-0.1l0,0c0,0,0-0.2,0-0.1l0,0c0,0,0,0.2,0,0.1v-0.1l0,0l0,0c0,0.1,0.4,0.4,1,0.8
		l9.6,5.8l-12.4,0.5l-11.5,0.5l-11.5,0.5c-7.6,0.4-15.3,0.9-22.9,1.5s-15.2,1.3-22.8,2.1c-7.5,0.9-15,1.9-21.9,3.4
		c-1.7,0.4-3.4,0.8-4.8,1.3c-0.6,0.2-1.4,0.5-1.8,0.7c-0.5,0.2-0.8,0.5-0.5,0.2c0.1-0.1,0.4-0.5,0.5-1.2c0-0.1,0-0.2,0-0.2
		s0-0.9,0-0.4v0.1v0.1v0.1v-0.2c0-0.2-0.1-0.5-0.3-0.7c0-0.1-0.1-0.2-0.1-0.2c-0.1-0.3-0.3-0.3-0.3-0.3s0,0,0.1,0.1
		c0,0,0.1,0.1,0.3,0.1c0.9,0.5,2.5,1,4,1.4c3.2,0.9,6.9,1.6,10.5,2.2c3.6,0.6,7.4,1.1,11.1,1.6c7.5,0.9,15,1.6,22.7,2.3
		c7.6,0.6,15.3,1.1,22.9,1.6c7.6,0.4,15.3,0.8,23.1,1.2c7.6,0.3,15.4,0.6,23.1,0.7c15.4,0.4,30.8,0.4,46.2,0.2
		c15.4-0.2,30.8-0.7,46.1-1.9c7.6-0.6,15.3-1.3,22.9-2.4c3.8-0.6,7.5-1.3,11-2.2c1.8-0.5,3.5-1.1,4.9-1.9c0.6-0.4,1.3-0.9,1.4-1.3
		c0.1-0.2,0.1-0.5,0-0.7c-0.1-0.2-0.4-0.5-0.6-0.7l-1.2-1l1.7-0.1c5.4-0.3,10.9-0.7,16.3-1.3c2.7-0.3,5.4-0.6,8.2-0.9s5.3-0.7,8-1.1
		c2.7-0.4,5.3-0.9,7.9-1.4c2.6-0.5,5.3-1.1,7.8-1.8c1.3-0.3,2.6-0.7,3.8-1.2c1.3-0.4,2.5-0.9,3.6-1.4c1.2-0.5,2.2-1.1,3.1-1.9
		C454.1,885.2,454.7,884.3,454.9,883.3L454.9,883.3z M455.5,883.3c0,1.2-0.8,2.2-1.8,3c-0.9,0.8-2.1,1.4-3.2,2
		c-1.2,0.6-2.5,1-3.6,1.5c-1.3,0.4-2.6,0.8-3.9,1.2c-2.6,0.7-5.2,1.3-7.9,1.9c-2.6,0.5-5.3,1-8,1.5c-10.8,1.7-21.6,2.8-32.5,3.6
		l0.3-0.5c0.4,0.3,0.6,0.6,0.9,1c0.3,0.4,0.3,0.9,0.1,1.3c-0.3,0.9-1,1.4-1.8,1.9c-1.6,0.9-3.5,1.5-5.3,2.1c-3.6,1-7.4,1.8-11.3,2.4
		c-7.6,1.3-15.3,2.1-22.9,2.8c-15.4,1.4-30.8,2.2-46.2,2.8c-15.4,0.5-31,0.7-46.4,0.7c-15.4-0.1-31-0.4-46.4-1
		c-15.4-0.7-31-1.6-46.2-3.4c-7.6-0.9-15.3-1.9-22.8-3.9c-1.8-0.5-3.6-1.1-5.4-1.9c-0.8-0.4-1.7-0.9-2.3-1.7l-0.1-0.3
		c0-0.1-0.1-0.3-0.1-0.4s0-0.2,0-0.3c0-0.1,0,0,0-0.2v-0.2c0-0.5,0.4-0.9,0.6-1.3c0.6-0.7,1.6-1.2,2.3-1.6c0.9-0.4,1.8-0.7,2.7-1
		c1.8-0.6,3.6-1.1,5.6-1.5c7.5-1.6,15.2-2.6,22.8-3.5c7.6-0.8,15.4-1.5,23.1-2c15.4-1,30.8-1.6,46.4-1.9l-0.4,0.7
		c-0.9-0.6-1.8-1.4-2.3-2.3c-0.5-0.9-0.5-2.1,0.1-3s1.4-1.7,2.5-2.3c0.5-0.3,1-0.6,1.6-0.9c0.5-0.3,1-0.5,1.6-0.7
		c2.2-0.9,4.4-1.7,6.6-2.3c2.3-0.6,4.5-1.2,6.9-1.7c9.3-2,18.9-3.2,28.5-4.1c19.2-1.9,38.5-2.6,57.6-2.7c19.3,0,38.6,0.6,57.8,2.3
		c9.6,0.9,19.2,2,28.5,3.7c4.7,0.9,9.3,1.9,13.9,3.2c2.2,0.7,4.4,1.5,6.5,2.6c1,0.5,1.9,1.1,2.8,1.9c0.3,0.2,0.4,0.4,0.5,0.6
		c0.1,0.2,0.4,0.4,0.5,0.7c0.1,0.2,0.3,0.5,0.3,0.7L455.5,883.3L455.5,883.3z"/>
</g>
<g id="Cloud2">
	<path id="XMLID_21_" class="st0 cloud cloud-2" d="M285.9,763.1c0-1.2-1.1-2-2.1-2.7c-1.1-0.7-2.3-1.1-3.5-1.6c-2.4-0.9-4.9-1.6-7.5-2.1
		c-5.1-1.1-10.2-2-15.2-2.7c-5.1-0.7-10.3-1.2-15.5-1.7c-5.2-0.5-10.3-0.8-15.5-1l-7.8-0.3l-7.8-0.2c-5.2-0.1-10.4-0.1-15.5-0.1
		c-10.4,0-20.7,0.2-30.9,0.7c-10.3,0.5-20.7,1-30.9,1.8c-10.3,0.8-20.6,1.8-30.7,3.2c-5.1,0.7-10.2,1.4-15.1,2.3s-9.9,1.9-14.6,3.4
		c-1.1,0.3-2.3,0.8-3.3,1.1c-1,0.5-2,0.9-2.6,1.2c-0.3,0.2-0.6,0.3-0.5,0.3c0,0,0,0,0.1-0.1c0,0,0-0.1,0.1-0.1
		c0-0.1,0.1-0.1,0.1-0.2c0-0.1,0.1-0.3,0.2-0.6c0-0.1,0-0.2,0.1-0.3c0-0.1,0-0.1,0-0.2v-0.1c-0.1-1.4,0-0.3,0-0.7l0.1,0.5
		c0-0.3-0.1-0.8-0.2-1c-0.1-0.2-0.1-0.1-0.1-0.2c0,0,0-0.1-0.1-0.1l-0.1-0.1l0,0l0,0l0.1,0.1c0,0.1,0.2,0.1,0.3,0.2
		c1.4,0.8,3.7,1.7,6,2.3c2.3,0.7,4.7,1.2,7.1,1.7l20.4,4.1L81,775.1c-2.1,0.6-4.3,1.2-6.3,2c-2,0.8-4,1.7-5.4,2.6
		c-0.7,0.5-1.4,1-1.6,1.2c-0.3,0.3,0.1,0.1,0-0.7v0.5c0,0.1,0,0,0,0c0-0.1,0-0.1,0-0.2c0-0.1,0-0.2-0.1-0.3l-0.1-0.1l0,0
		c0,0,0,0,0.1,0.1c0.1,0.1,0.2,0.1,0.2,0.2c0,0.1,0.2,0.2,0.3,0.3c0.1,0.1,0.2,0.2,0.5,0.3c0.3,0.2,0.7,0.5,1.1,0.7
		c1.6,0.9,3.6,1.8,5.6,2.6c2,0.7,4.2,1.5,6.4,2c4.4,1.1,8.9,2.1,13.4,3c4.5,0.9,9.1,1.6,13.8,2.1c4.6,0.7,9.3,1.1,14,1.6
		c9.4,0.9,18.7,1.6,28.1,1.9c2.4,0.1,4.7,0.2,7.1,0.2c2.4,0.1,4.7,0.1,7.1,0.1c4.7,0,9.5,0,14.1-0.1c9.5-0.2,18.9-0.7,28.2-1.6
		c4.7-0.5,9.4-1,14-1.8c4.6-0.7,9.3-1.6,13.8-2.8c2.3-0.6,4.5-1.4,6.7-2.3c2.1-0.9,4.2-1.9,5.9-3.4c0.8-0.8,1.5-1.6,1.7-2.5
		c0.2-0.9-0.1-1.9-0.7-2.7c-1.4-1.7-3.4-2.9-5.4-4l-1.9-1l2.1-0.2c3.7-0.3,7.5-0.7,11.2-1.1c3.7-0.5,7.5-1,11.1-1.7
		c3.7-0.7,7.3-1.5,11-2.5c1.8-0.6,3.5-1.1,5.2-1.9c0.8-0.5,1.7-0.8,2.4-1.4C285.4,764.6,285.9,763.9,285.9,763.1L285.9,763.1z
		 M286.5,763.1c0,1.1-0.8,1.9-1.6,2.5c-0.8,0.6-1.6,1-2.5,1.5c-1.7,0.8-3.5,1.5-5.3,1.9c-3.6,1-7.3,1.8-11,2.6
		c-7.3,1.4-14.8,2.3-22.4,3l0.1-0.7c2.1,1,4.3,2.3,5.9,4.2c0.8,1,1.4,2.3,1,3.6c-0.2,1.2-1.1,2.3-1.9,3.2c-1.8,1.6-4,2.7-6.2,3.7
		c-2.1,1-4.4,1.7-6.8,2.4c-4.5,1.4-9.3,2.4-13.9,3.3c-4.6,0.9-9.4,1.6-14.1,2.1c-18.9,2.4-37.9,3.2-56.9,2.9
		c-9.5-0.1-19-0.5-28.5-1.1s-19-1.7-28.3-3.3c-4.7-0.8-9.4-1.7-14-2.9c-4.6-1.2-9.3-2.6-13.4-5.1c-1-0.6-2-1.4-2.9-2.1l-0.7-0.7
		c-0.2-0.2-0.3-0.6-0.6-0.8c-0.2-0.2-0.3-0.6-0.5-0.9c-0.1-0.3-0.2-0.7-0.2-0.9c-0.2-1.4,0.5-2.7,1.2-3.7c0.8-1,1.8-1.7,2.8-2.4
		c2-1.4,4.3-2.3,6.5-3.2c2.3-0.8,4.5-1.6,6.9-2.1v1.1c-2.6-0.6-5.1-1.1-7.6-1.8c-2.5-0.8-5-1.6-7.3-2.9c-0.6-0.3-1.1-0.8-1.6-1.2
		c-0.2-0.2-0.5-0.6-0.7-0.9c-0.1-0.2-0.1-0.5-0.2-0.6l-0.1-0.5c0-1,0.5-1.6,0.9-2.1c0.5-0.6,1-0.9,1.6-1.4c2.3-1.4,4.9-2.3,7.3-2.9
		c5-1.5,10.2-2.4,15.2-3.2c5.1-0.8,10.3-1.5,15.5-2c10.3-1.1,20.7-1.8,31.1-2.4c10.4-0.6,20.7-0.8,31.1-0.9
		c20.7-0.2,41.4,0.2,62.1,1.7c10.4,0.7,20.7,1.7,30.9,3.2c5.1,0.8,10.3,1.6,15.2,2.8c2.5,0.6,5.1,1.4,7.5,2.3c1.2,0.5,2.4,1,3.5,1.7
		c0.6,0.3,1.1,0.8,1.6,1.2c0.2,0.2,0.5,0.6,0.6,0.9C286.4,762.3,286.5,762.7,286.5,763.1L286.5,763.1z"/>
</g>
<g id="Cloud3">
	<path id="XMLID_83_" class="st0 cloud cloud-3" d="M561.4,633.7c0-1.4-1.5-2.3-2.9-3c-1.5-0.8-3.1-1.3-4.8-1.8c-3.2-1-6.7-1.8-10.2-2.4
		c-7-1.3-13.9-2.3-20.9-3c-7-0.8-14.1-1.4-21.2-1.9c-7.1-0.5-14.1-0.9-21.2-1.1l-10.7-0.4l-10.7-0.3c-7.1-0.1-14.2-0.1-21.2-0.1
		c-14.2,0-28.3,0.3-42.4,0.8c-14.1,0.5-28.3,1.1-42.4,2c-14.1,0.9-28.2,2-42.1,3.5c-7,0.8-13.9,1.5-20.7,2.5c-6.8,1-13.6,2.1-20,3.8
		c-1.5,0.4-3.1,0.9-4.5,1.3c-1.4,0.5-2.8,1-3.6,1.4c-0.5,0.3-0.8,0.4-0.6,0.4c0,0,0,0,0.2-0.1c0,0,0-0.1,0.2-0.1
		c0-0.1,0.2-0.1,0.2-0.3s0.2-0.4,0.3-0.6c0-0.1,0-0.3,0.2-0.4c0-0.1,0-0.1,0-0.3v-0.1c-0.2-1.5,0-0.4,0-0.8l0.2,0.5
		c0-0.4-0.2-0.9-0.3-1.1c-0.2-0.3-0.2-0.1-0.2-0.3c0,0,0-0.1-0.2-0.1l-0.2-0.1l0,0l0,0l0.2,0.1c0,0.1,0.3,0.1,0.5,0.3
		c1.9,0.9,5.1,1.9,8.2,2.5c3.1,0.8,6.5,1.4,9.7,1.9l28,4.5l-27.7,6.3c-2.9,0.6-5.9,1.4-8.7,2.3c-2.8,0.9-5.4,1.9-7.4,2.9
		c-0.9,0.5-1.9,1.1-2.2,1.4c-0.5,0.4,0.2,0.1,0-0.8v0.5c0,0.1,0,0,0,0c0-0.1,0-0.1,0-0.3s0-0.3-0.2-0.4l-0.2-0.1l0,0
		c0,0,0,0,0.2,0.1s0.3,0.1,0.3,0.3s0.3,0.3,0.5,0.4c0.2,0.1,0.3,0.3,0.6,0.4c0.5,0.3,0.9,0.5,1.5,0.8c2.2,1,5,2,7.7,2.9
		c2.8,0.8,5.7,1.6,8.8,2.3c6,1.3,12.2,2.4,18.4,3.4c6.2,1,12.5,1.8,18.9,2.4c6.3,0.8,12.7,1.3,19.2,1.8c12.8,1,25.7,1.8,38.5,2.1
		c3.2,0.1,6.5,0.3,9.7,0.3c3.2,0.1,6.5,0.1,9.7,0.1c6.5,0,13,0,19.3-0.1c13-0.3,25.8-0.8,38.7-1.8c6.5-0.5,12.8-1.1,19.2-2
		c6.3-0.8,12.7-1.8,18.9-3.1c3.1-0.6,6.2-1.5,9.1-2.5c2.9-1,5.7-2.1,8-3.8c1.1-0.9,2-1.8,2.3-2.8c0.3-1-0.2-2.1-0.9-3
		c-1.9-1.9-4.6-3.3-7.4-4.4l-2.6-1.1l2.9-0.3c5.1-0.4,10.2-0.8,15.3-1.3c5.1-0.5,10.2-1.1,15.2-1.9c5.1-0.8,10.1-1.6,15-2.8
		c2.5-0.6,4.8-1.3,7.1-2.1c1.1-0.5,2.3-0.9,3.2-1.5C560.7,635.3,561.4,634.4,561.4,633.7L561.4,633.7z M562.2,633.5
		c0,1.3-1.1,2.1-2.2,2.8s-2.2,1.1-3.4,1.6c-2.3,0.9-4.8,1.6-7.3,2.1c-5,1.1-10.1,2-15,2.9c-10.1,1.5-20.3,2.5-30.6,3.4l0.2-0.8
		c2.9,1.1,5.9,2.5,8,4.7c1.1,1.1,1.9,2.5,1.4,4c-0.3,1.4-1.5,2.5-2.6,3.5c-2.5,1.8-5.4,3-8.5,4.2c-2.9,1.1-6,1.9-9.3,2.6
		c-6.2,1.5-12.7,2.6-19,3.7c-6.3,1-12.8,1.8-19.3,2.4c-25.8,2.6-52,3.5-78,3.3c-13-0.1-26-0.5-39-1.3s-26-1.9-38.8-3.7
		c-6.5-0.9-12.8-1.9-19.2-3.3c-6.3-1.4-12.7-2.9-18.4-5.7c-1.4-0.6-2.8-1.5-4-2.4l-0.9-0.8c-0.3-0.3-0.5-0.6-0.8-0.9
		c-0.3-0.3-0.5-0.6-0.6-1s-0.3-0.8-0.3-1c-0.3-1.5,0.6-3,1.7-4.2s2.5-1.9,3.9-2.6c2.8-1.5,5.9-2.5,9-3.5c3.1-0.9,6.2-1.8,9.4-2.4
		v1.3c-3.6-0.6-7-1.3-10.4-2c-3.4-0.9-6.8-1.8-10.1-3.3c-0.8-0.4-1.5-0.9-2.2-1.4c-0.3-0.3-0.6-0.6-0.9-1c-0.2-0.3-0.2-0.5-0.3-0.6
		l-0.2-0.5c0-1.1,0.6-1.8,1.2-2.4c0.6-0.6,1.4-1,2.2-1.5c3.1-1.5,6.7-2.5,10.1-3.3c6.8-1.6,13.9-2.6,20.9-3.5
		c7-0.9,14.1-1.6,21.2-2.3c14.1-1.3,28.3-2,42.6-2.6s28.3-0.9,42.6-1c28.3-0.3,56.8,0.3,85.1,1.9c14.2,0.8,28.3,1.9,42.4,3.5
		c7,0.9,14.1,1.8,20.9,3.1c3.4,0.6,7,1.5,10.2,2.5c1.7,0.5,3.2,1.1,4.8,1.9c0.8,0.4,1.5,0.9,2.2,1.4c0.3,0.3,0.6,0.6,0.8,1
		C562,632.8,562.2,633.2,562.2,633.5L562.2,633.5z"/>
</g>
</svg>
