<svg id="Capa_1" xmlns="http://www.w3.org/2000/svg" viewBox="0 0 1024 1024"><style>.st0{fill:#2e2e2e}</style><path id="XMLID_57_" class="st0" d="M821.8 605.6l-2.2-4.9-5.3-2.3 74.6-5.5h-84.2l-19.6-4.1-12.2 4.1h-49.3l30.9-8.8 15.3.5-1.9-2.2 86.6 3.1-77.3-7.2L787 566c.2-.3 7.5-3.9 7.5-3.9l12.7-2.7 12.4 1.5-12.5-4.3-1.2-1.7-3.4 2.7-10.5 2.2 9.1-11.4-31.1 25.7-76.2 18.8h-22.9L665 600l-72.7 11.3-7.5-1.9-7 4.2-55.3 8.6L512 618l-37.2 11.7-81.9 12.7-5-1.6-1.9 1.6v-2.6l-3.5-6.7 5.4-111.3 24.7-72.3 7-11.8-1.4-4.7 15.4-45 10.7-6.6-2.3-5 16.6-17.5 20.9-11.4H492l28.9-17.9 8.6-9.4 19.1-10.4 13.7 4.9 3.4 4h7.8l33.6 11.9 61.7 21.9-19.6-9-1.2-3.3h-6l-16.6-7.6 89.2 9.9 4.1 5 7.3-2.3 58.6-14.6-54.5 8.2-115.8-14.9-1.8-1.4-7.7-1.6-2.9 1-43.4-19.9 1-1.2 4.5-1.9 49.6-8 60.2-6.1 4.6-4.1-2.3-3.2 32.5-19.2 6-17.4-16 18.3-43.5 22.2h-25.4l-4.8 2.8-44.5 3.2-7.1-1.5 1.7-2.2-2.4-.8 37.4-16-42.3 12.4 62.9-46.4-43 24.9 1.2-4.2 2.5-8.9.2-5 5.3-6.7-7.1 6.2-2.7 9.2-3.4 8.7-10.4 9.2-17.3 10-5.2 1.4-11.9 5-15.1 8.2-12.1 4.1v3.4l-10.3 6.9-2.4 3.7-62.2 35.4 15.1-31.3 9.2-8.4-1.1-8.2 12.9-26.6 34-44.4 57.6-26.4 13.5-1.3 11.5-10.2 60.3-27.6-101 33 23.4-33s-7.4 8.2-17 17.5l-.9-4.8-2.2 7.8c-9.7 9.3-20.9 18.8-28.7 22.1-16.5 6.9-38.5 30.4-38.5 30.4l-11.9 5.4 5.4-28.7 22.9-63.4 35-22.2h6.9l14.4 11.2 15.8 1.9-13.7-4.5-1.5-3.8-2.7 1.7-10-9.6-.4-2.4 38.8-24.5L557 106l-2-.5-2.2 2.4-9.4 4.4-13.4 4.2-3.4 3.7-13.8 6.5-2.3-14.9 4.5-12.6 4.1-5-4.1-2.7 4.1-6.9 21.1-16.9-5.8-20 .7-2.6-2.4-3.4-1.8-6.2 2.4-5.2 10.8-5.7-13.2 3.4-1.7 1.6L521.5 3l-.5 22.6-3.9-5.7-8.2-5.3v2.5l-13.1-3.9L516 25.6l4.8 9.7-.3 15.4-2.7 13.5-1.6-2.3-2.6 3.1L489 44.8l-2.6-8.6-20.8-10.6L451.5 14l36.2 39.3 4.5 12.5 7.3 9.2-6.4 35.2-20.7 75.6-21.1-66-.6-.7 1.6-13.6 5.4-13.2-3.6-10.3v9.6l-6.4 11.3-2.3 9.8-31-35.6 29.1 53.6 8.2 42.3-1.4 5.1 3.2 12.5-1.4 5.6 2.7 8.7-1.7 11.7-24.6 41.9-11.4 33.7-36.6 47.1-67.6-28.7 32.8 13.9-20.7-33.3v-5.8l-9-8.6-8.5-13.7v-8.9l-10.3-7.6-21.6-34.7v-35l-75.6-55 52.4 59.8-33.9-8.2-18.6 5.5 22 3.4 12.4 11.7 22.7.7 8.2 38h-12.9s28.7 39.7 31.4 41.1c1.3.7 6.3 8.5 11.2 16.4l-2.3 4.9 2.2 5.7-.4.9-42.2-25.2H240l-18.9-13.7-52.7-13.4 65.2 40.5-8.6-5.3-47-13.7-18.6-16.8-5.8-1.7 21.6 25.4 8.2 7.6 5.9-4.3L258 305l34.6 21.5-7.2 4.1-16 3.3-3.7-3.3-24.3 3.3-7.8 5.4-50.4 17.9 42.6-9.6L216 375l14.7-23.8 16-9.5 4.1 2.4 48.1-4.8 22.4 4.8 39.5 24.5 1.2 21.8-23.1 56.2-10.1 5.9-5 25.2-13.7 7.3-6-5-7.9-1.2-13.2-9.2v-2.7l-3.4.3-13.2-9.2-13.8-17.5-16.2-3.3-6-4.2-9.1-15-8.2-10.5-3.2-5.5h-3.7l-5.9-7.3-7.4-1.9-48.3-51.7 14.4 22.3-11-5.8s-33.7-3.8-35.4-4.8c-1.7-1-27.1-12.7-27.1-12.7l22.3 18.6 46 10 4.1 7.9 16.9 11.5 39 60.4h-35.4l-27.7-5.6-22.3-23.4-4.4-7.5-41.6-9.1 35.4 13.1 6.9 12.4 14.4 14.4-23-7.6 7.9 6.9 7.2 2.7 2.5 3.5h-20.2l-10.3-1.7-11.5 1.7H59.9l-2.6-1.6-3.4 1.6H-.2l121.8 7.1-36.6 3.2-21.6 8.6 24.7-3.3h17.2l-11.9 11.4v6.3l3.3-6.3 9.6-4.4 12-7 14.8-2.6 21.3 1 13.7-2.7 1.4-1.4 21.2 1.2 26.5 3.6 4.8 3.8 9.8 2.7 50.8 52.9 20.6 28v4.6l3.2 5.3-19.3 66.9-4.9 2.4-18.6 40.3-8.1 38.8v41.4l-16.2 70.2-68.7 114.9-14.4 50.6-48.9 32-46.6 6.6h507l-42.5-5-46-9.6-13 4.1-80.2-18.1-33-3.9-23.4-17.4-11-37.3-3.1-23.6 7.3-9.6-5.3-23.8 19.2-52.7v-38l16-69.2 5.8-5.5 47.7-20.5 133.7-38.7H571l33.9.7 148 22.7 47.6-19.2-49.9 12.4 11-10.1-22 9.2-45.8-12.8-19.2.5-26.6-4.6-60.5-10.3-.9-1.8L712.4 606l71-5.2 26.1 2.5 28.5 13.4 4.1.9-14.4-11.9h-5.9z"/></svg>